<svg width="185" height="78" viewBox="0 0 185 78" fill="none" xmlns="http://www.w3.org/2000/svg">
<path d="M1.25 12H0.546875V6.36328H3.96875V6.99609H1.25V8.93359H3.74609V9.55859H1.25V12ZM8.67656 6.98828V9.14844H10.0633C10.7859 9.14844 11.1961 8.75781 11.1961 8.06641C11.1961 7.39062 10.7586 6.98828 10.032 6.98828H8.67656ZM8.67656 9.76953V12H7.97344V6.36328H10.1258C11.2117 6.36328 11.9227 7.02734 11.9227 8.04297C11.9227 8.82812 11.4969 9.4375 10.7898 9.66016L12.0945 12H11.2703L10.0633 9.76953H8.67656ZM18.3883 6.26953C19.9859 6.26953 20.9859 7.39453 20.9859 9.18359C20.9859 10.9727 19.9859 12.0938 18.3883 12.0938C16.7906 12.0938 15.7906 10.9727 15.7906 9.18359C15.7906 7.39453 16.7906 6.26953 18.3883 6.26953ZM18.3883 6.91797C17.2359 6.91797 16.5133 7.79297 16.5133 9.18359C16.5133 10.5703 17.2359 11.4453 18.3883 11.4453C19.5406 11.4453 20.2633 10.5703 20.2633 9.18359C20.2633 7.79297 19.5406 6.91797 18.3883 6.91797ZM30.6156 6.36328V12H29.9594V7.65625H29.932L28.1352 11.9609H27.5414L25.7445 7.65625H25.7172V12H25.0609V6.36328H25.8773L27.8227 11.0664H27.8539L29.7992 6.36328H30.6156ZM40.0234 6.36328H41.957C43.6289 6.36328 44.6172 7.40625 44.6172 9.17969C44.6172 10.957 43.6328 12 41.957 12H40.0234V6.36328ZM40.7266 6.99609V11.3672H41.9102C43.1875 11.3672 43.8984 10.5859 43.8984 9.1875C43.8984 7.77734 43.1914 6.99609 41.9102 6.99609H40.7266ZM48.0086 12L49.9266 9.17578V9.14844L48.032 6.36328H48.8797L50.3836 8.62891H50.4109L51.9344 6.36328H52.7352L50.7898 9.18359V9.20703L52.6922 12H51.8484L50.3523 9.75391H50.325L48.8055 12H48.0086ZM58.6266 12.0938C57.0719 12.0938 56.0875 10.9648 56.0875 9.17969C56.0875 7.41016 57.0836 6.26953 58.6266 6.26953C59.8531 6.26953 60.7867 7.01562 60.9664 8.14062H60.2555C60.0758 7.40234 59.4313 6.91797 58.6266 6.91797C57.525 6.91797 56.8102 7.80859 56.8102 9.17969C56.8102 10.5625 57.5172 11.4453 58.6305 11.4453C59.4586 11.4453 60.0523 11.0469 60.2555 10.3594H60.9664C60.7086 11.4727 59.8727 12.0938 58.6266 12.0938ZM67.3773 6.26953C68.975 6.26953 69.975 7.39453 69.975 9.18359C69.975 10.9727 68.975 12.0938 67.3773 12.0938C65.7797 12.0938 64.7797 10.9727 64.7797 9.18359C64.7797 7.39453 65.7797 6.26953 67.3773 6.26953ZM67.3773 6.91797C66.225 6.91797 65.5023 7.79297 65.5023 9.18359C65.5023 10.5703 66.225 11.4453 67.3773 11.4453C68.5297 11.4453 69.2523 10.5703 69.2523 9.18359C69.2523 7.79297 68.5297 6.91797 67.3773 6.91797ZM74.7453 12H74.05V6.36328H74.7336L77.8195 10.7891H77.8547V6.36328H78.55V12H77.8664L74.7805 7.58984H74.7453V12Z" fill="white"/>
<g clip-path="url(#clip0_1221_3401)">
<path d="M114.06 42.8602V43.0502L103.71 46.2202V40.8802C103.6 39.5902 103.34 38.3602 102.91 37.1902C102.47 36.0202 101.77 35.1602 100.79 34.6402C99.82 34.1002 98.47 34.1402 96.76 34.7702C94.86 35.5002 92.96 36.5902 91.04 38.0502C89.52 39.2202 88.08 40.5002 86.69 41.9002C86.72 42.2302 86.73 42.5302 86.73 42.8602V52.0902L76.38 55.2502V40.8802C76.27 39.6102 76.01 38.4002 75.58 37.2302C75.14 36.0602 74.44 35.2002 73.46 34.6502C72.48 34.1102 71.13 34.1702 69.41 34.8102C67.53 35.5302 65.63 36.6202 63.71 38.0902C61.94 39.4502 60.27 40.9602 58.7 42.6202V60.2702L48.35 63.4402V46.3602C48.35 45.0402 48.31 43.8902 48.25 42.9102C48.18 41.9202 48.1 41.0902 47.99 40.3702C47.89 39.6602 47.77 39.0902 47.63 38.6202C47.51 38.1602 47.36 37.7902 47.22 37.5102C47.07 37.2402 46.93 37.0402 46.8 36.8902C46.78 36.8702 46.77 36.8502 46.76 36.8502C46.74 36.8302 46.72 36.8102 46.71 36.8002C46.44 36.5302 46.6 36.4102 46.66 36.3802H46.68L57.62 32.1002C58.15 31.8902 58.71 32.2902 58.71 32.8502V38.4802C59.84 37.3802 61.04 36.3602 62.31 35.3902C66.19 32.4402 70.07 30.8402 73.92 30.6002C74.76 30.5402 75.58 30.5602 76.39 30.6502C78.91 30.9102 81.06 31.8002 82.83 33.3302C84.33 34.6502 85.41 36.3602 86.08 38.4302C87.2 37.3502 88.38 36.3402 89.63 35.3602C93.53 32.4402 97.4 30.8302 101.24 30.5802C102.08 30.5302 102.9 30.5402 103.71 30.6302C106.23 30.8802 108.38 31.7902 110.15 33.3202C111.4 34.4002 112.36 35.7702 113.04 37.4302C113.72 39.0902 114.06 40.9002 114.06 42.8702V42.8602Z" fill="white"/>
<path d="M35.6802 30.6902L35.6602 30.6602C35.6602 30.6602 35.6602 30.6802 35.6602 30.6902H35.6802Z" fill="white"/>
<path d="M50.4899 30.6602C50.4899 30.6602 50.4599 30.7002 50.4199 30.7602C50.4499 30.7302 50.4599 30.7002 50.4799 30.6602H50.4899Z" fill="white"/>
<path d="M184.06 77.27C183.91 77.13 183.77 76.93 183.64 76.7C183.33 76.13 183.08 75.42 182.9 74.57C182.65 73.37 182.5 72.19 182.41 71.02C182.38 70.58 182.36 70.19 182.34 69.83C182.34 69.83 182.34 69.81 182.34 69.8L182.36 49.44C182.36 49.03 182.62 46.05 180.68 47.23C178.22 48.74 165.83 55.93 168.68 57.89C170.32 59.01 171.13 64.34 168.11 68.71C167.65 69.36 165.95 71.49 163.58 72.34C163.44 72.39 163.29 72.45 163.14 72.48C163.05 72.52 162.96 72.53 162.88 72.55C162.67 72.59 162.45 72.65 162.25 72.68C162.14 72.7 162.04 72.73 161.94 72.75C158.16 73.4 154.28 72.21 152.69 68.35C149.88 61.52 165.25 51.37 165.25 51.37C165.25 51.37 176.77 43.71 180.72 39.52C183.24 36.84 181.41 34.34 180.32 33.18C176.72 29.37 171.14 30.21 167.23 31.31C159.46 33.49 136.41 40.87 136.41 40.87L124.91 44.44L115.59 47.33L114.06 47.8L103.71 51.01L97.99 52.78L89.64 55.37L86.74 56.28L76.39 59.48L71.97 60.85L62.62 63.75L58.7 64.96L58.17 65.12C54.79 66.09 51.48 67 48.34 67.85C47.19 68.15 46.05 68.45 44.95 68.75C39.1 70.27 33.93 71.5 29.94 72.24C29.86 72.24 29.78 72.26 29.7 72.27C22.26 73.12 15.24 68.57 12.85 61.48C12.47 60.35 12.29 59.56 12.25 59.4V59.37C12.25 59.37 12.13 58.92 12.03 58.24L30.43 52.57L40.96 49.33C40.96 49.02 40.94 48.72 40.92 48.44C40.89 47.73 40.86 47.07 40.8 46.44C39.85 36.13 35.04 33.27 33.54 32.63C33.5 32.6 33.47 32.59 33.43 32.58C30.68 31.04 26.69 30.11 20.91 30.57C2.68999 32.08 -2.29001 51 0.899986 61.06C4.09999 71.14 14.1 79.12 26 77.3C32.65 76.27 38.89 74.38 48.15 71.4C48.11 71.85 48.06 72.31 48.01 72.78C47.88 73.89 47.67 74.86 47.39 75.73C47.39 75.75 47.37 75.77 47.37 75.77C47.24 76.17 47.08 76.5 46.91 76.77C46.91 76.77 46.88 76.81 46.84 76.88C46.82 76.91 46.8 76.93 46.79 76.96C46.78 76.99 46.75 77.01 46.72 77.04L46.69 77.07L46.61 77.15C46.49 77.27 46.41 77.39 46.87 77.39H60.18C60.68 77.39 60.55 77.25 60.42 77.12C60.4 77.1 60.38 77.08 60.37 77.07C60.28 76.98 60.19 76.86 60.15 76.8C60.15 76.8 60.15 76.78 60.15 76.77C60.09 76.67 60.03 76.56 59.96 76.42C59.68 75.84 59.45 75.1 59.28 74.22C59.06 72.99 58.91 71.77 58.83 70.57C58.76 69.42 58.72 68.55 58.72 67.99C60.01 67.56 61.37 67.13 62.77 66.69L76.4 62.45V67.7C76.4 68.05 76.37 68.68 76.33 69.63C76.29 70.59 76.21 71.62 76.07 72.74C75.93 73.86 75.73 74.85 75.45 75.74L75.42 75.78C75.28 76.18 75.12 76.51 74.95 76.78C74.93 76.82 74.91 76.85 74.89 76.88C74.85 76.94 74.78 77.01 74.73 77.08L74.62 77.19C74.52 77.31 74.5 77.4 74.91 77.4H88.22C88.72 77.4 88.59 77.26 88.46 77.13C88.44 77.11 88.42 77.09 88.41 77.08C88.29 76.96 88.18 76.79 88.18 76.79C88.11 76.69 88.05 76.58 87.98 76.44C87.69 75.86 87.47 75.12 87.31 74.24C87.09 73.01 86.94 71.79 86.86 70.59C86.79 69.38 86.75 68.49 86.75 67.94V59.25L103.73 53.97V67.7C103.73 68.03 103.7 68.68 103.67 69.63C103.63 70.57 103.54 71.62 103.4 72.74C103.27 73.87 103.06 74.86 102.78 75.73C102.76 75.73 102.75 75.76 102.75 75.77C102.62 76.18 102.46 76.53 102.28 76.79C102.26 76.83 102.24 76.85 102.22 76.89C102.22 76.91 102.19 76.93 102.18 76.94C102.14 76.98 102.11 77.04 102.06 77.08C101.95 77.19 101.77 77.34 102.02 77.38H115.78C116.04 77.34 115.84 77.18 115.74 77.08C115.62 76.96 115.51 76.79 115.51 76.79H115.53C115.46 76.68 115.39 76.56 115.32 76.42C115.04 75.82 114.82 75.1 114.64 74.21C114.42 73 114.27 71.79 114.19 70.57C114.12 69.36 114.08 68.48 114.08 67.92V50.76L115.4 50.35L124.97 47.4V67.87C124.97 68.49 124.91 69.62 124.77 71.3C124.65 72.97 124.35 74.48 123.9 75.83C123.9 75.83 123.48 76.76 123.23 77.06L123.19 77.1C123.07 77.26 122.82 77.47 123.38 77.47H137.97C138.55 77.47 138.28 77.26 138.16 77.1C138.12 77.05 137.83 76.6 137.79 76.52C137.48 75.93 137.24 75.2 137.06 74.31C136.81 73.09 136.65 71.87 136.57 70.67C136.49 69.46 136.45 68.58 136.45 68.01V43.87L155.82 37.9L156.39 37.73C157.56 37.33 158.68 37.01 159.74 36.77C163.01 36.01 165.72 35.98 167.62 36.48L168.47 36.77C169.49 37.18 170.19 37.76 170.51 38.5C171.94 41.81 170.86 47.07 157.17 52.75C145.61 57.54 142.17 62.4 142.17 66.38C142.17 75.21 150.2 76.9 150.2 76.9C162.86 79.87 168.78 70.5 169.93 69.37C170.31 68.99 170.58 68.89 170.77 68.92C171.17 69.17 171.05 70.05 170.86 71.63C170.65 73.25 170.27 74.74 169.75 76.03C169.63 76.33 169.36 76.87 169.12 77.15C169.12 77.15 169.07 77.2 169.01 77.27C168.94 77.36 168.87 77.48 168.92 77.52C169.01 77.62 169.57 77.64 169.96 77.64H181.75C182.17 77.64 182.37 77.64 182.37 77.64H183.16C183.53 77.64 184.1 77.62 184.19 77.52C184.24 77.48 184.17 77.36 184.1 77.27H184.06ZM21.42 31.98C26.11 31.5 28.37 36.85 29.44 41.09C29.44 41.14 29.47 41.2 29.48 41.25C29.52 41.46 29.57 41.68 29.61 41.9C29.91 43.32 30.13 44.69 30.27 46.01V46.03C30.33 46.58 30.38 47.11 30.41 47.65C30.45 48.34 30.48 48.99 30.49 49.64L11.68 55.46C10.55 43.82 14.22 32.72 21.42 31.98Z" fill="white"/>
<path d="M128.26 18L130.13 20.73L128.26 25H123.54L121.72 22.18H126.44L128.26 18Z" fill="white"/>
<path d="M133.56 18L131.7 20.73L133.56 25H138.29L140.1 22.18H135.38L133.56 18Z" fill="white"/>
<path d="M120.06 27.4598L123.14 26.2798L126.87 29.0798L125.77 33.6798L122.61 34.7898L123.71 30.1898L120.06 27.4598Z" fill="white"/>
<path d="M141.69 27.6802L138.64 26.4102L134.84 29.1102L135.8 33.7302L138.93 34.9402L137.97 30.3102L141.69 27.6802Z" fill="white"/>
<path d="M134.64 37.7498L134.75 34.4498L130.89 31.8398L126.9 34.3698L126.87 37.7198L130.86 35.1898L134.64 37.7498Z" fill="white"/>
</g>
<defs>
<clipPath id="clip0_1221_3401">
<rect width="184.17" height="59.64" fill="white" transform="translate(0 18)"/>
</clipPath>
</defs>
</svg>
